<?xml version="1.0" standalone="no"?>
<!DOCTYPE svg PUBLIC "-//W3C//DTD SVG 20010904//EN"
 "http://www.w3.org/TR/2001/REC-SVG-20010904/DTD/svg10.dtd">
<svg version="1.0" xmlns="http://www.w3.org/2000/svg"
 width="64.000000pt" height="64.000000pt" viewBox="0 0 64.000000 64.000000"
 preserveAspectRatio="xMidYMid meet">

<g transform="translate(0.000000,64.000000) scale(0.100000,-0.100000)"
fill="#000000" stroke="none">
<path d="M160 552 c-90 -40 -129 -156 -77 -233 12 -18 38 -44 57 -57 l35 -23
7 42 c6 32 4 47 -8 60 -16 18 -4 36 16 24 6 -3 15 -3 21 1 7 4 2 11 -13 18
-30 15 -37 63 -11 73 10 4 21 11 24 16 8 11 59 -21 59 -37 0 -9 13 -8 50 3 27
9 50 21 50 27 0 19 -40 63 -70 79 -29 15 -112 19 -140 7z"/>
<path d="M422 509 c-33 -12 -22 -34 17 -34 32 0 59 -24 40 -36 -6 -3 -3 -15 8
-28 l18 -23 20 22 c11 13 15 24 9 28 -5 4 -15 19 -21 33 -14 32 -58 50 -91 38z"/>
<path d="M215 420 c3 -5 15 -10 26 -10 11 0 17 5 14 10 -3 6 -15 10 -26 10
-11 0 -17 -4 -14 -10z"/>
<path d="M314 401 c-104 -47 -131 -173 -57 -262 117 -139 347 -3 282 168 -15
42 -68 92 -109 103 -49 14 -69 12 -116 -9z m114 -83 c13 -13 17 -48 5 -48 -3
0 -14 7 -24 16 -10 9 -23 13 -28 9 -16 -10 -13 -23 7 -28 14 -3 13 -6 -8 -15
-18 -8 -20 -11 -7 -11 18 -1 25 -21 7 -21 -5 0 -10 -4 -10 -10 0 -5 9 -10 19
-10 11 0 23 5 26 10 10 17 25 11 25 -10 0 -21 -27 -40 -59 -40 -24 0 -70 57
-67 85 3 23 15 55 29 73 12 15 69 16 85 0z"/>
<path d="M98 231 c-15 -21 -15 -26 4 -58 23 -38 60 -57 95 -48 33 8 30 35 -4
35 -37 0 -57 14 -50 34 3 8 -2 25 -12 37 l-18 22 -15 -22z"/>
</g>
</svg>
